<mxfile host="app.diagrams.net" modified="2023-12-20T09:39:54.588Z" agent="Mozilla/5.0 (Windows NT 10.0; Win64; x64) AppleWebKit/537.36 (KHTML, like Gecko) Chrome/120.0.0.0 Safari/537.36" etag="IxbD_82FspREvgaecV_2" version="22.1.11" type="google">
  <diagram name="Page-1" id="UysicWD-IeBjwptT-XwB">
    <mxGraphModel grid="1" page="1" gridSize="10" guides="1" tooltips="1" connect="1" arrows="1" fold="1" pageScale="1" pageWidth="827" pageHeight="1169" math="0" shadow="0">
      <root>
        <mxCell id="0" />
        <mxCell id="1" parent="0" />
        <mxCell id="0sdpQ8P6i9JNI-ef1gW2-3" value="" style="group" vertex="1" connectable="0" parent="1">
          <mxGeometry x="300" y="100" width="120" height="110" as="geometry" />
        </mxCell>
        <mxCell id="0sdpQ8P6i9JNI-ef1gW2-1" value="" style="rounded=0;whiteSpace=wrap;html=1;" vertex="1" parent="0sdpQ8P6i9JNI-ef1gW2-3">
          <mxGeometry y="30" width="120" height="80" as="geometry" />
        </mxCell>
        <mxCell id="0sdpQ8P6i9JNI-ef1gW2-2" value="exercises" style="rounded=0;whiteSpace=wrap;html=1;" vertex="1" parent="0sdpQ8P6i9JNI-ef1gW2-3">
          <mxGeometry width="120" height="30" as="geometry" />
        </mxCell>
        <mxCell id="0sdpQ8P6i9JNI-ef1gW2-4" value="name&lt;br&gt;status" style="text;html=1;strokeColor=none;fillColor=none;align=left;verticalAlign=middle;whiteSpace=wrap;rounded=0;" vertex="1" parent="0sdpQ8P6i9JNI-ef1gW2-3">
          <mxGeometry x="10" y="30" width="50" height="80" as="geometry" />
        </mxCell>
        <mxCell id="0sdpQ8P6i9JNI-ef1gW2-5" value="text&lt;br&gt;text" style="text;html=1;strokeColor=none;fillColor=none;align=left;verticalAlign=middle;whiteSpace=wrap;rounded=0;" vertex="1" parent="0sdpQ8P6i9JNI-ef1gW2-3">
          <mxGeometry x="60" y="30" width="60" height="80" as="geometry" />
        </mxCell>
        <mxCell id="TbsKbS-wuQtN_C3aZl8a-1" value="" style="group" vertex="1" connectable="0" parent="1">
          <mxGeometry x="300" y="430" width="120" height="110" as="geometry" />
        </mxCell>
        <mxCell id="TbsKbS-wuQtN_C3aZl8a-2" value="" style="rounded=0;whiteSpace=wrap;html=1;" vertex="1" parent="TbsKbS-wuQtN_C3aZl8a-1">
          <mxGeometry y="30" width="120" height="80" as="geometry" />
        </mxCell>
        <mxCell id="TbsKbS-wuQtN_C3aZl8a-3" value="fields" style="rounded=0;whiteSpace=wrap;html=1;" vertex="1" parent="TbsKbS-wuQtN_C3aZl8a-1">
          <mxGeometry width="120" height="30" as="geometry" />
        </mxCell>
        <mxCell id="TbsKbS-wuQtN_C3aZl8a-4" value="name" style="text;html=1;strokeColor=none;fillColor=none;align=left;verticalAlign=middle;whiteSpace=wrap;rounded=0;" vertex="1" parent="TbsKbS-wuQtN_C3aZl8a-1">
          <mxGeometry x="10" y="30" width="50" height="80" as="geometry" />
        </mxCell>
        <mxCell id="TbsKbS-wuQtN_C3aZl8a-5" value="text" style="text;html=1;strokeColor=none;fillColor=none;align=left;verticalAlign=middle;whiteSpace=wrap;rounded=0;" vertex="1" parent="TbsKbS-wuQtN_C3aZl8a-1">
          <mxGeometry x="60" y="30" width="60" height="80" as="geometry" />
        </mxCell>
        <mxCell id="TbsKbS-wuQtN_C3aZl8a-11" value="contain" style="swimlane;childLayout=stackLayout;horizontal=1;startSize=30;horizontalStack=0;rounded=1;fontSize=14;fontStyle=0;strokeWidth=2;resizeParent=0;resizeLast=1;shadow=0;dashed=0;align=center;arcSize=18;whiteSpace=wrap;html=1;" vertex="1" parent="1">
          <mxGeometry x="302" y="290" width="116" height="50" as="geometry" />
        </mxCell>
        <mxCell id="TbsKbS-wuQtN_C3aZl8a-16" value="" style="endArrow=none;html=1;rounded=0;exitX=1;exitY=1;exitDx=0;exitDy=0;entryX=0.5;entryY=0;entryDx=0;entryDy=0;" edge="1" parent="1" source="0sdpQ8P6i9JNI-ef1gW2-4" target="TbsKbS-wuQtN_C3aZl8a-11">
          <mxGeometry relative="1" as="geometry">
            <mxPoint x="116" y="320" as="sourcePoint" />
            <mxPoint x="276" y="320" as="targetPoint" />
          </mxGeometry>
        </mxCell>
        <mxCell id="TbsKbS-wuQtN_C3aZl8a-17" value="" style="resizable=0;html=1;whiteSpace=wrap;align=right;verticalAlign=bottom;" connectable="0" vertex="1" parent="TbsKbS-wuQtN_C3aZl8a-16">
          <mxGeometry x="1" relative="1" as="geometry" />
        </mxCell>
        <mxCell id="TbsKbS-wuQtN_C3aZl8a-20" value="0,n" style="edgeLabel;html=1;align=center;verticalAlign=middle;resizable=0;points=[];" vertex="1" connectable="0" parent="TbsKbS-wuQtN_C3aZl8a-16">
          <mxGeometry y="1" relative="1" as="geometry">
            <mxPoint as="offset" />
          </mxGeometry>
        </mxCell>
        <mxCell id="TbsKbS-wuQtN_C3aZl8a-18" value="" style="endArrow=none;html=1;rounded=0;exitX=0.5;exitY=1;exitDx=0;exitDy=0;entryX=0.5;entryY=0;entryDx=0;entryDy=0;" edge="1" parent="1" source="TbsKbS-wuQtN_C3aZl8a-11" target="TbsKbS-wuQtN_C3aZl8a-3">
          <mxGeometry relative="1" as="geometry">
            <mxPoint x="370" y="220" as="sourcePoint" />
            <mxPoint x="370" y="300" as="targetPoint" />
          </mxGeometry>
        </mxCell>
        <mxCell id="TbsKbS-wuQtN_C3aZl8a-19" value="" style="resizable=0;html=1;whiteSpace=wrap;align=right;verticalAlign=bottom;" connectable="0" vertex="1" parent="TbsKbS-wuQtN_C3aZl8a-18">
          <mxGeometry x="1" relative="1" as="geometry" />
        </mxCell>
        <mxCell id="TbsKbS-wuQtN_C3aZl8a-21" value="1,1" style="edgeLabel;html=1;align=center;verticalAlign=middle;resizable=0;points=[];" vertex="1" connectable="0" parent="TbsKbS-wuQtN_C3aZl8a-18">
          <mxGeometry x="0.0519" y="-2" relative="1" as="geometry">
            <mxPoint as="offset" />
          </mxGeometry>
        </mxCell>
        <mxCell id="TbsKbS-wuQtN_C3aZl8a-22" value="" style="group" vertex="1" connectable="0" parent="1">
          <mxGeometry x="653" y="430" width="167" height="110" as="geometry" />
        </mxCell>
        <mxCell id="TbsKbS-wuQtN_C3aZl8a-23" value="" style="rounded=0;whiteSpace=wrap;html=1;" vertex="1" parent="TbsKbS-wuQtN_C3aZl8a-22">
          <mxGeometry y="30" width="167" height="80" as="geometry" />
        </mxCell>
        <mxCell id="TbsKbS-wuQtN_C3aZl8a-24" value="fieldTypes" style="rounded=0;whiteSpace=wrap;html=1;" vertex="1" parent="TbsKbS-wuQtN_C3aZl8a-22">
          <mxGeometry width="167" height="30" as="geometry" />
        </mxCell>
        <mxCell id="TbsKbS-wuQtN_C3aZl8a-25" value="&lt;u&gt;name&lt;/u&gt;&lt;br&gt;max lenght" style="text;html=1;strokeColor=none;fillColor=none;align=left;verticalAlign=middle;whiteSpace=wrap;rounded=0;" vertex="1" parent="TbsKbS-wuQtN_C3aZl8a-22">
          <mxGeometry x="13.916666666666666" y="30" width="69.58333333333333" height="80" as="geometry" />
        </mxCell>
        <mxCell id="TbsKbS-wuQtN_C3aZl8a-26" value="text&lt;br&gt;number" style="text;html=1;strokeColor=none;fillColor=none;align=left;verticalAlign=middle;whiteSpace=wrap;rounded=0;" vertex="1" parent="TbsKbS-wuQtN_C3aZl8a-22">
          <mxGeometry x="83.5" y="30" width="83.5" height="80" as="geometry" />
        </mxCell>
        <mxCell id="TbsKbS-wuQtN_C3aZl8a-27" value="define" style="swimlane;childLayout=stackLayout;horizontal=1;startSize=30;horizontalStack=0;rounded=1;fontSize=14;fontStyle=0;strokeWidth=2;resizeParent=0;resizeLast=1;shadow=0;dashed=0;align=center;arcSize=36;whiteSpace=wrap;html=1;" vertex="1" parent="1">
          <mxGeometry x="486" y="455" width="116" height="50" as="geometry" />
        </mxCell>
        <mxCell id="TbsKbS-wuQtN_C3aZl8a-28" value="Project :&amp;nbsp;MAW11_POWERRANGERS&lt;br&gt;Title : MCD&lt;br&gt;Author : Cyprien Jaquier&lt;br&gt;&lt;div style=&quot;&quot;&gt;&lt;span style=&quot;background-color: initial;&quot;&gt;Modify by : Mikael Juillet&lt;/span&gt;&lt;/div&gt;&lt;div style=&quot;&quot;&gt;&lt;span style=&quot;background-color: initial;&quot;&gt;Verssion : 1.2&lt;/span&gt;&lt;/div&gt;&lt;div style=&quot;&quot;&gt;&lt;span style=&quot;background-color: initial;&quot;&gt;Date : 20.12.2023&lt;/span&gt;&lt;/div&gt;" style="html=1;whiteSpace=wrap;align=left;" vertex="1" parent="1">
          <mxGeometry x="10" width="220" height="90" as="geometry" />
        </mxCell>
        <mxCell id="TbsKbS-wuQtN_C3aZl8a-29" value="" style="endArrow=none;html=1;rounded=0;exitX=0;exitY=0.5;exitDx=0;exitDy=0;entryX=1;entryY=0.25;entryDx=0;entryDy=0;" edge="1" parent="1" source="TbsKbS-wuQtN_C3aZl8a-27" target="TbsKbS-wuQtN_C3aZl8a-5">
          <mxGeometry relative="1" as="geometry">
            <mxPoint x="370" y="350" as="sourcePoint" />
            <mxPoint x="370" y="440" as="targetPoint" />
          </mxGeometry>
        </mxCell>
        <mxCell id="TbsKbS-wuQtN_C3aZl8a-30" value="" style="resizable=0;html=1;whiteSpace=wrap;align=right;verticalAlign=bottom;" connectable="0" vertex="1" parent="TbsKbS-wuQtN_C3aZl8a-29">
          <mxGeometry x="1" relative="1" as="geometry" />
        </mxCell>
        <mxCell id="TbsKbS-wuQtN_C3aZl8a-31" value="1,1" style="edgeLabel;html=1;align=center;verticalAlign=middle;resizable=0;points=[];" vertex="1" connectable="0" parent="TbsKbS-wuQtN_C3aZl8a-29">
          <mxGeometry x="0.0519" y="-2" relative="1" as="geometry">
            <mxPoint as="offset" />
          </mxGeometry>
        </mxCell>
        <mxCell id="TbsKbS-wuQtN_C3aZl8a-32" value="" style="endArrow=none;html=1;rounded=0;exitX=1;exitY=0.5;exitDx=0;exitDy=0;entryX=0;entryY=0.25;entryDx=0;entryDy=0;" edge="1" parent="1" source="TbsKbS-wuQtN_C3aZl8a-27" target="TbsKbS-wuQtN_C3aZl8a-23">
          <mxGeometry relative="1" as="geometry">
            <mxPoint x="380" y="360" as="sourcePoint" />
            <mxPoint x="380" y="450" as="targetPoint" />
          </mxGeometry>
        </mxCell>
        <mxCell id="TbsKbS-wuQtN_C3aZl8a-33" value="" style="resizable=0;html=1;whiteSpace=wrap;align=right;verticalAlign=bottom;" connectable="0" vertex="1" parent="TbsKbS-wuQtN_C3aZl8a-32">
          <mxGeometry x="1" relative="1" as="geometry" />
        </mxCell>
        <mxCell id="TbsKbS-wuQtN_C3aZl8a-34" value="0,n" style="edgeLabel;html=1;align=center;verticalAlign=middle;resizable=0;points=[];" vertex="1" connectable="0" parent="TbsKbS-wuQtN_C3aZl8a-32">
          <mxGeometry x="0.0519" y="-2" relative="1" as="geometry">
            <mxPoint as="offset" />
          </mxGeometry>
        </mxCell>
        <mxCell id="e5HdefWxIRSvWPdxO9NA-1" value="" style="group" vertex="1" connectable="0" parent="1">
          <mxGeometry x="10" y="430" width="120" height="110" as="geometry" />
        </mxCell>
        <mxCell id="e5HdefWxIRSvWPdxO9NA-2" value="" style="rounded=0;whiteSpace=wrap;html=1;" vertex="1" parent="e5HdefWxIRSvWPdxO9NA-1">
          <mxGeometry y="30" width="120" height="80" as="geometry" />
        </mxCell>
        <mxCell id="e5HdefWxIRSvWPdxO9NA-3" value="answers" style="rounded=0;whiteSpace=wrap;html=1;" vertex="1" parent="e5HdefWxIRSvWPdxO9NA-1">
          <mxGeometry width="120" height="30" as="geometry" />
        </mxCell>
        <mxCell id="e5HdefWxIRSvWPdxO9NA-4" value="value" style="text;html=1;strokeColor=none;fillColor=none;align=left;verticalAlign=middle;whiteSpace=wrap;rounded=0;" vertex="1" parent="e5HdefWxIRSvWPdxO9NA-1">
          <mxGeometry x="10" y="30" width="50" height="80" as="geometry" />
        </mxCell>
        <mxCell id="e5HdefWxIRSvWPdxO9NA-5" value="text" style="text;html=1;strokeColor=none;fillColor=none;align=left;verticalAlign=middle;whiteSpace=wrap;rounded=0;" vertex="1" parent="e5HdefWxIRSvWPdxO9NA-1">
          <mxGeometry x="60" y="30" width="60" height="80" as="geometry" />
        </mxCell>
        <mxCell id="e5HdefWxIRSvWPdxO9NA-6" value="" style="group" vertex="1" connectable="0" parent="1">
          <mxGeometry x="6" y="100" width="120" height="110" as="geometry" />
        </mxCell>
        <mxCell id="e5HdefWxIRSvWPdxO9NA-7" value="" style="rounded=0;whiteSpace=wrap;html=1;" vertex="1" parent="e5HdefWxIRSvWPdxO9NA-6">
          <mxGeometry y="30" width="120" height="80" as="geometry" />
        </mxCell>
        <mxCell id="e5HdefWxIRSvWPdxO9NA-8" value="fullilment" style="rounded=0;whiteSpace=wrap;html=1;" vertex="1" parent="e5HdefWxIRSvWPdxO9NA-6">
          <mxGeometry width="120" height="30" as="geometry" />
        </mxCell>
        <mxCell id="e5HdefWxIRSvWPdxO9NA-9" value="date" style="text;html=1;strokeColor=none;fillColor=none;align=left;verticalAlign=middle;whiteSpace=wrap;rounded=0;" vertex="1" parent="e5HdefWxIRSvWPdxO9NA-6">
          <mxGeometry x="10" y="30" width="50" height="80" as="geometry" />
        </mxCell>
        <mxCell id="e5HdefWxIRSvWPdxO9NA-10" value="date" style="text;html=1;strokeColor=none;fillColor=none;align=left;verticalAlign=middle;whiteSpace=wrap;rounded=0;" vertex="1" parent="e5HdefWxIRSvWPdxO9NA-6">
          <mxGeometry x="60" y="30" width="60" height="80" as="geometry" />
        </mxCell>
        <mxCell id="e5HdefWxIRSvWPdxO9NA-14" style="edgeStyle=orthogonalEdgeStyle;rounded=0;orthogonalLoop=1;jettySize=auto;html=1;entryX=1;entryY=0.25;entryDx=0;entryDy=0;endArrow=none;endFill=0;" edge="1" parent="1" source="e5HdefWxIRSvWPdxO9NA-11" target="e5HdefWxIRSvWPdxO9NA-5">
          <mxGeometry relative="1" as="geometry" />
        </mxCell>
        <mxCell id="e5HdefWxIRSvWPdxO9NA-16" value="1,1" style="edgeLabel;html=1;align=center;verticalAlign=middle;resizable=0;points=[];" vertex="1" connectable="0" parent="e5HdefWxIRSvWPdxO9NA-14">
          <mxGeometry x="-0.3644" y="-2" relative="1" as="geometry">
            <mxPoint as="offset" />
          </mxGeometry>
        </mxCell>
        <mxCell id="e5HdefWxIRSvWPdxO9NA-11" value="answer" style="swimlane;childLayout=stackLayout;horizontal=1;startSize=30;horizontalStack=0;rounded=1;fontSize=14;fontStyle=0;strokeWidth=2;resizeParent=0;resizeLast=1;shadow=0;dashed=0;align=center;arcSize=18;whiteSpace=wrap;html=1;" vertex="1" parent="1">
          <mxGeometry x="160" y="455" width="116" height="50" as="geometry" />
        </mxCell>
        <mxCell id="e5HdefWxIRSvWPdxO9NA-13" style="edgeStyle=orthogonalEdgeStyle;rounded=0;orthogonalLoop=1;jettySize=auto;html=1;exitX=1;exitY=0.5;exitDx=0;exitDy=0;entryX=-0.029;entryY=0.229;entryDx=0;entryDy=0;entryPerimeter=0;endArrow=none;endFill=0;" edge="1" parent="1" source="e5HdefWxIRSvWPdxO9NA-11" target="TbsKbS-wuQtN_C3aZl8a-2">
          <mxGeometry relative="1" as="geometry" />
        </mxCell>
        <mxCell id="e5HdefWxIRSvWPdxO9NA-15" value="0,n" style="edgeLabel;html=1;align=center;verticalAlign=middle;resizable=0;points=[];" vertex="1" connectable="0" parent="e5HdefWxIRSvWPdxO9NA-13">
          <mxGeometry x="0.032" y="1" relative="1" as="geometry">
            <mxPoint as="offset" />
          </mxGeometry>
        </mxCell>
        <mxCell id="e5HdefWxIRSvWPdxO9NA-19" style="edgeStyle=orthogonalEdgeStyle;rounded=0;orthogonalLoop=1;jettySize=auto;html=1;entryX=0.5;entryY=0;entryDx=0;entryDy=0;endArrow=none;endFill=0;" edge="1" parent="1" source="e5HdefWxIRSvWPdxO9NA-17" target="e5HdefWxIRSvWPdxO9NA-3">
          <mxGeometry relative="1" as="geometry" />
        </mxCell>
        <mxCell id="e5HdefWxIRSvWPdxO9NA-21" value="1,n" style="edgeLabel;html=1;align=center;verticalAlign=middle;resizable=0;points=[];" vertex="1" connectable="0" parent="e5HdefWxIRSvWPdxO9NA-19">
          <mxGeometry x="0.0221" y="3" relative="1" as="geometry">
            <mxPoint as="offset" />
          </mxGeometry>
        </mxCell>
        <mxCell id="e5HdefWxIRSvWPdxO9NA-17" value="compose" style="swimlane;childLayout=stackLayout;horizontal=1;startSize=30;horizontalStack=0;rounded=1;fontSize=14;fontStyle=0;strokeWidth=2;resizeParent=0;resizeLast=1;shadow=0;dashed=0;align=center;arcSize=18;whiteSpace=wrap;html=1;" vertex="1" parent="1">
          <mxGeometry x="6" y="290" width="116" height="50" as="geometry" />
        </mxCell>
        <mxCell id="e5HdefWxIRSvWPdxO9NA-18" style="edgeStyle=orthogonalEdgeStyle;rounded=0;orthogonalLoop=1;jettySize=auto;html=1;entryX=0.5;entryY=0;entryDx=0;entryDy=0;endArrow=none;endFill=0;" edge="1" parent="1" target="e5HdefWxIRSvWPdxO9NA-17">
          <mxGeometry relative="1" as="geometry">
            <mxPoint x="60" y="210" as="sourcePoint" />
          </mxGeometry>
        </mxCell>
        <mxCell id="e5HdefWxIRSvWPdxO9NA-20" value="1,1" style="edgeLabel;html=1;align=center;verticalAlign=middle;resizable=0;points=[];" vertex="1" connectable="0" parent="e5HdefWxIRSvWPdxO9NA-18">
          <mxGeometry x="0.0874" y="-1" relative="1" as="geometry">
            <mxPoint as="offset" />
          </mxGeometry>
        </mxCell>
      </root>
    </mxGraphModel>
  </diagram>
</mxfile>
